<svg width="" height="" viewBox="0 0 21 21" fill="none" xmlns="http://www.w3.org/2000/svg">
<path d="M19.6639 2.43802C19.877 2.43842 20.0813 2.51392 20.232 2.648C20.3827 2.78208 20.4676 2.96382 20.468 3.15344V19.8158C20.4676 20.0055 20.3827 20.1872 20.232 20.3213C20.0813 20.4554 19.877 20.5309 19.6639 20.5312H1.441C1.22786 20.5309 1.02358 20.4554 0.872872 20.3213C0.722162 20.1872 0.637296 20.0055 0.636848 19.8158V3.15344C0.637296 2.96382 0.722162 2.78208 0.872872 2.648C1.02358 2.51392 1.22786 2.43842 1.441 2.43802H3.68923V3.52395C3.68923 4.09317 3.9434 4.63907 4.39582 5.04157C4.84824 5.44407 5.46186 5.67019 6.10168 5.67019C6.7415 5.67019 7.35512 5.44407 7.80754 5.04157C8.25996 4.63907 8.51413 4.09317 8.51413 3.52395V2.43953H12.6009V3.52395C12.6009 4.09317 12.8551 4.63907 13.3075 5.04157C13.7599 5.44407 14.3735 5.67019 15.0133 5.67019C15.6532 5.67019 16.2668 5.44407 16.7192 5.04157C17.1716 4.63907 17.4258 4.09317 17.4258 3.52395V2.43953L19.6639 2.43802ZM18.5905 7.5137H2.51433V18.8624H18.5905V7.5137ZM6.08983 8.75024H3.9855V10.6962H6.08983V8.75024ZM6.08983 12.2023H3.9855V14.1482H6.08983V12.2023ZM6.08983 15.6544H3.9855V17.5988H6.08983V15.6544ZM7.03957 3.52395V1.36565C7.03957 1.14435 6.94076 0.932121 6.76487 0.77564C6.58898 0.61916 6.35042 0.53125 6.10168 0.53125C5.85293 0.53125 5.61438 0.61916 5.43849 0.77564C5.2626 0.932121 5.16379 1.14435 5.16379 1.36565V3.52395C5.16379 3.74524 5.2626 3.95747 5.43849 4.11396C5.61438 4.27044 5.85293 4.35835 6.10168 4.35835C6.35042 4.35835 6.58898 4.27044 6.76487 4.11396C6.94076 3.95747 7.03957 3.74524 7.03957 3.52395ZM9.77029 8.75024H7.66427V10.6962H9.77029V8.75024ZM9.77029 12.2023H7.66427V14.1482H9.77029V12.2023ZM9.77029 15.6544H7.66427V17.5988H9.77029V15.6544ZM13.4508 8.75024H11.3447V10.6962H13.4508V8.75024ZM13.4508 12.2023H11.3447V14.1482H13.4508V12.2023ZM13.4508 15.6544H11.3447V17.5988H13.4508V15.6544ZM15.9512 3.52395V1.36565C15.9512 1.14435 15.8524 0.932121 15.6765 0.77564C15.5006 0.61916 15.2621 0.53125 15.0133 0.53125C14.7646 0.53125 14.526 0.61916 14.3502 0.77564C14.1743 0.932121 14.0755 1.14435 14.0755 1.36565V3.52395C14.0755 3.74524 14.1743 3.95747 14.3502 4.11396C14.526 4.27044 14.7646 4.35835 15.0133 4.35835C15.2621 4.35835 15.5006 4.27044 15.6765 4.11396C15.8524 3.95747 15.9512 3.74524 15.9512 3.52395ZM17.1295 8.75024H15.0252V10.6962H17.1295V8.75024ZM17.1295 12.2023H15.0252V14.1482H17.1295V12.2023ZM17.1295 15.6544H15.0252V17.5988H17.1295V15.6544Z" fill="black"/>
</svg>
