<svg width="39" height="35" viewBox="0 0 39 35" fill="none" xmlns="http://www.w3.org/2000/svg">
<path d="M26.0284 18.6668L38.6628 25.4368L33.2691 26.8535L37.1243 32.9885L33.9821 34.6552L30.1268 28.5218L26.0937 32.1052L26.0284 18.6668ZM22.3999 7.00016H26.0284V10.3335H35.0996C35.5808 10.3335 36.0423 10.5091 36.3825 10.8217C36.7228 11.1342 36.9139 11.5581 36.9139 12.0002V18.6668H33.2854V13.6668H15.1429V30.3335H22.3999V33.6668H13.3287C12.8475 33.6668 12.386 33.4912 12.0458 33.1787C11.7055 32.8661 11.5144 32.4422 11.5144 32.0002V23.6668H7.8859V20.3335H11.5144V12.0002C11.5144 11.5581 11.7055 11.1342 12.0458 10.8217C12.386 10.5091 12.8475 10.3335 13.3287 10.3335H22.3999V7.00016ZM4.25741 20.3335V23.6668H0.628906V20.3335H4.25741ZM4.25741 13.6668V17.0002H0.628906V13.6668H4.25741ZM4.25741 7.00016V10.3335H0.628906V7.00016H4.25741ZM4.25741 0.333496V3.66683H0.628906V0.333496H4.25741ZM11.5144 0.333496V3.66683H7.8859V0.333496H11.5144ZM18.7714 0.333496V3.66683H15.1429V0.333496H18.7714ZM26.0284 0.333496V3.66683H22.3999V0.333496H26.0284Z" fill="black"/>
</svg>
