<svg  viewBox="0 0 20 18" fill="none" xmlns="http://www.w3.org/2000/svg">
<path d="M14.1666 16.5V14.8333C14.1666 13.9493 13.8154 13.1014 13.1903 12.4763C12.5652 11.8512 11.7173 11.5 10.8333 11.5H4.16659C3.28253 11.5 2.43468 11.8512 1.80956 12.4763C1.18444 13.1014 0.833252 13.9493 0.833252 14.8333V16.5" stroke="currentColor" stroke-width="1.5" stroke-linecap="round" stroke-linejoin="round"/>
<path d="M7.50008 8.16667C9.34103 8.16667 10.8334 6.67428 10.8334 4.83333C10.8334 2.99238 9.34103 1.5 7.50008 1.5C5.65913 1.5 4.16675 2.99238 4.16675 4.83333C4.16675 6.67428 5.65913 8.16667 7.50008 8.16667Z" stroke="currentColor" stroke-width="1.5" stroke-linecap="round" stroke-linejoin="round"/>
<path d="M19.1667 16.5001V14.8334C19.1662 14.0948 18.9204 13.3774 18.4679 12.7937C18.0154 12.2099 17.3819 11.793 16.6667 11.6084" stroke="currentColor" stroke-width="1.5" stroke-linecap="round" stroke-linejoin="round"/>
<path d="M13.3333 1.6084C14.0503 1.79198 14.6858 2.20898 15.1396 2.79366C15.5935 3.37833 15.8398 4.09742 15.8398 4.83757C15.8398 5.57771 15.5935 6.2968 15.1396 6.88147C14.6858 7.46615 14.0503 7.88315 13.3333 8.06673" stroke="currentColor" stroke-width="1.5" stroke-linecap="round" stroke-linejoin="round"/>
</svg>
