<svg viewBox="0 0 21 16" fill="none" xmlns="http://www.w3.org/2000/svg">
<path d="M17.7941 7.80022H2.35814C1.53489 7.80022 0.857422 7.27355 0.857422 6.63355V4.42022C0.857422 3.96688 1.26045 3.50688 1.80071 3.34022L9.51867 0.940234C9.84454 0.840234 10.3077 0.840234 10.6335 0.940234L18.3515 3.34022C18.8918 3.50688 19.2948 3.97355 19.2948 4.42022V6.63355C19.2948 7.27355 18.6173 7.80022 17.7941 7.80022ZM10.0761 1.86024C10.0418 1.86024 10.0075 1.8602 9.99037 1.86687L2.28093 4.26689C2.22948 4.28689 2.14375 4.37355 2.14375 4.42022V6.63355C2.14375 6.72689 2.23808 6.80022 2.35814 6.80022H17.7941C17.9141 6.80022 18.0085 6.72689 18.0085 6.63355V4.42022C18.0085 4.37355 17.9313 4.28689 17.8713 4.26689L10.1533 1.86687C10.1362 1.8602 10.1104 1.86024 10.0761 1.86024Z" fill="currentColor"/>
<path d="M18.6516 15.1335H1.50059C1.14899 15.1335 0.857422 14.9068 0.857422 14.6335V12.6335C0.857422 11.9935 1.53489 11.4668 2.35814 11.4668H17.7941C18.6173 11.4668 19.2948 11.9935 19.2948 12.6335V14.6335C19.2948 14.9068 19.0032 15.1335 18.6516 15.1335ZM2.14375 14.1335H18.0085V12.6335C18.0085 12.5401 17.9141 12.4668 17.7941 12.4668H2.35814C2.23808 12.4668 2.14375 12.5401 2.14375 12.6335V14.1335Z" fill="currentColor"/>
<path d="M3.21543 12.4665C2.86383 12.4665 2.57227 12.2398 2.57227 11.9665V7.2998C2.57227 7.02647 2.86383 6.7998 3.21543 6.7998C3.56703 6.7998 3.85859 7.02647 3.85859 7.2998V11.9665C3.85859 12.2398 3.56703 12.4665 3.21543 12.4665Z" fill="currentColor"/>
<path d="M6.64512 12.4665C6.29352 12.4665 6.00195 12.2398 6.00195 11.9665V7.2998C6.00195 7.02647 6.29352 6.7998 6.64512 6.7998C6.99671 6.7998 7.28828 7.02647 7.28828 7.2998V11.9665C7.28828 12.2398 6.99671 12.4665 6.64512 12.4665Z" fill="currentColor"/>
<path d="M10.0768 12.4665C9.72516 12.4665 9.43359 12.2398 9.43359 11.9665V7.2998C9.43359 7.02647 9.72516 6.7998 10.0768 6.7998C10.4284 6.7998 10.7199 7.02647 10.7199 7.2998V11.9665C10.7199 12.2398 10.4284 12.4665 10.0768 12.4665Z" fill="currentColor"/>
<path d="M13.5064 12.4665C13.1548 12.4665 12.8633 12.2398 12.8633 11.9665V7.2998C12.8633 7.02647 13.1548 6.7998 13.5064 6.7998C13.858 6.7998 14.1496 7.02647 14.1496 7.2998V11.9665C14.1496 12.2398 13.858 12.4665 13.5064 12.4665Z" fill="currentColor"/>
<path d="M16.9361 12.4665C16.5845 12.4665 16.293 12.2398 16.293 11.9665V7.2998C16.293 7.02647 16.5845 6.7998 16.9361 6.7998C17.2877 6.7998 17.5793 7.02647 17.5793 7.2998V11.9665C17.5793 12.2398 17.2877 12.4665 16.9361 12.4665Z" fill="currentColor"/>
<path d="M19.5093 15.1338H0.643164C0.291568 15.1338 0 14.9071 0 14.6338C0 14.3605 0.291568 14.1338 0.643164 14.1338H19.5093C19.8609 14.1338 20.1525 14.3605 20.1525 14.6338C20.1525 14.9071 19.8609 15.1338 19.5093 15.1338Z" fill="currentColor"/>
<path d="M10.076 6.13379C9.01261 6.13379 8.14648 5.46046 8.14648 4.63379C8.14648 3.80712 9.01261 3.13379 10.076 3.13379C11.1393 3.13379 12.0055 3.80712 12.0055 4.63379C12.0055 5.46046 11.1393 6.13379 10.076 6.13379ZM10.076 4.13379C9.72438 4.13379 9.43281 4.36046 9.43281 4.63379C9.43281 4.90712 9.72438 5.13379 10.076 5.13379C10.4276 5.13379 10.7191 4.90712 10.7191 4.63379C10.7191 4.36046 10.4276 4.13379 10.076 4.13379Z" fill="currentColor"/>
</svg>
