<svg width="21" height="20" viewBox="0 0 21 20" fill="none" xmlns="http://www.w3.org/2000/svg">
<path opacity="0.5" d="M10.6232 20C16.0994 20 20.5388 15.5228 20.5388 10C20.5388 4.47715 16.0994 0 10.6232 0C5.14697 0 0.707611 4.47715 0.707611 10C0.707611 15.5228 5.14697 20 10.6232 20Z" fill="#8399FF"/>
<path fill-rule="evenodd" clip-rule="evenodd" d="M10.6233 5.25C11.034 5.25 11.3669 5.58579 11.3669 6V9.6893L13.628 11.9697C13.9184 12.2626 13.9184 12.7374 13.628 13.0303C13.3376 13.3232 12.8668 13.3232 12.5763 13.0303L10.0975 10.5303C9.95794 10.3897 9.87961 10.1989 9.87961 10V6C9.87961 5.58579 10.2126 5.25 10.6233 5.25Z" fill="black"/>
</svg>
