<svg width="" height="" viewBox="0 0 18 18" fill="none" xmlns="http://www.w3.org/2000/svg">
<path d="M9 2.2002C11.2 2.2002 11.5 2.2002 12.4 2.2002C13.2 2.2002 13.6 2.4002 13.9 2.5002C14.3 2.7002 14.6 2.8002 14.9 3.1002C15.2 3.4002 15.4 3.7002 15.5 4.1002C15.6 4.4002 15.7 4.8002 15.8 5.6002C15.8 6.5002 15.8 6.7002 15.8 9.0002C15.8 11.3002 15.8 11.5002 15.8 12.4002C15.8 13.2002 15.6 13.6002 15.5 13.9002C15.3 14.3002 15.2 14.6002 14.9 14.9002C14.6 15.2002 14.3 15.4002 13.9 15.5002C13.6 15.6002 13.2 15.7002 12.4 15.8002C11.5 15.8002 11.3 15.8002 9 15.8002C6.7 15.8002 6.5 15.8002 5.6 15.8002C4.8 15.8002 4.4 15.6002 4.1 15.5002C3.7 15.3002 3.4 15.2002 3.1 14.9002C2.8 14.6002 2.6 14.3002 2.5 13.9002C2.4 13.6002 2.3 13.2002 2.2 12.4002C2.2 11.5002 2.2 11.3002 2.2 9.0002C2.2 6.7002 2.2 6.5002 2.2 5.6002C2.2 4.8002 2.4 4.4002 2.5 4.1002C2.7 3.7002 2.8 3.4002 3.1 3.1002C3.4 2.8002 3.7 2.6002 4.1 2.5002C4.4 2.4002 4.8 2.3002 5.6 2.2002C6.5 2.2002 6.8 2.2002 9 2.2002ZM9 0.700195C6.7 0.700195 6.5 0.700195 5.6 0.700195C4.7 0.700195 4.1 0.900196 3.6 1.1002C3.1 1.3002 2.6 1.6002 2.1 2.1002C1.6 2.6002 1.4 3.0002 1.1 3.6002C0.900001 4.1002 0.800001 4.7002 0.700001 5.6002C0.700001 6.5002 0.700001 6.8002 0.700001 9.0002C0.700001 11.3002 0.700001 11.5002 0.700001 12.4002C0.700001 13.3002 0.900001 13.9002 1.1 14.4002C1.3 14.9002 1.6 15.4002 2.1 15.9002C2.6 16.4002 3 16.6002 3.6 16.9002C4.1 17.1002 4.7 17.2002 5.6 17.3002C6.5 17.3002 6.8 17.3002 9 17.3002C11.2 17.3002 11.5 17.3002 12.4 17.3002C13.3 17.3002 13.9 17.1002 14.4 16.9002C14.9 16.7002 15.4 16.4002 15.9 15.9002C16.4 15.4002 16.6 15.0002 16.9 14.4002C17.1 13.9002 17.2 13.3002 17.3 12.4002C17.3 11.5002 17.3 11.2002 17.3 9.0002C17.3 6.8002 17.3 6.5002 17.3 5.6002C17.3 4.7002 17.1 4.1002 16.9 3.6002C16.7 3.1002 16.4 2.6002 15.9 2.1002C15.4 1.6002 15 1.4002 14.4 1.1002C13.9 0.900196 13.3 0.800195 12.4 0.700195C11.5 0.700195 11.3 0.700195 9 0.700195Z" fill="white"/>
<path d="M9 4.7002C6.6 4.7002 4.7 6.6002 4.7 9.0002C4.7 11.4002 6.6 13.3002 9 13.3002C11.4 13.3002 13.3 11.4002 13.3 9.0002C13.3 6.6002 11.4 4.7002 9 4.7002ZM9 11.8002C7.5 11.8002 6.2 10.6002 6.2 9.0002C6.2 7.5002 7.4 6.2002 9 6.2002C10.5 6.2002 11.8 7.4002 11.8 9.0002C11.8 10.5002 10.5 11.8002 9 11.8002Z" fill="white"/>
<path d="M13.4 5.6002C13.9523 5.6002 14.4 5.15248 14.4 4.6002C14.4 4.04791 13.9523 3.6002 13.4 3.6002C12.8477 3.6002 12.4 4.04791 12.4 4.6002C12.4 5.15248 12.8477 5.6002 13.4 5.6002Z" fill="white"/>
</svg>
