<svg  viewBox="0 0 16 20" fill="none" xmlns="http://www.w3.org/2000/svg">
<path d="M11.3333 3.3335H13C13.442 3.3335 13.8659 3.50909 14.1785 3.82165C14.4911 4.13421 14.6666 4.55814 14.6666 5.00016V16.6668C14.6666 17.1089 14.4911 17.5328 14.1785 17.8453C13.8659 18.1579 13.442 18.3335 13 18.3335H2.99998C2.55795 18.3335 2.13403 18.1579 1.82147 17.8453C1.50891 17.5328 1.33331 17.1089 1.33331 16.6668V5.00016C1.33331 4.55814 1.50891 4.13421 1.82147 3.82165C2.13403 3.50909 2.55795 3.3335 2.99998 3.3335H4.66665" stroke="currentColor" stroke-width="1.5" stroke-linecap="round" stroke-linejoin="round"/>
<path d="M10.5 1.6665H5.50002C5.03978 1.6665 4.66669 2.0396 4.66669 2.49984V4.1665C4.66669 4.62674 5.03978 4.99984 5.50002 4.99984H10.5C10.9603 4.99984 11.3334 4.62674 11.3334 4.1665V2.49984C11.3334 2.0396 10.9603 1.6665 10.5 1.6665Z" stroke="currentColor" stroke-width="1.5" stroke-linecap="round" stroke-linejoin="round"/>
</svg>
