<svg viewBox="0 0 16 17" fill="none">
<path opacity="0.5" d="M0.460205 11.9947C0.460205 9.87366 0.460205 8.81312 1.11772 8.15418C1.77524 7.49524 2.83349 7.49524 4.95 7.49524H10.9364C13.0529 7.49524 14.1112 7.49524 14.7687 8.15418C15.4262 8.81312 15.4262 9.87366 15.4262 11.9947C15.4262 14.1158 15.4262 15.1764 14.7687 15.8353C14.1112 16.4943 13.0529 16.4943 10.9364 16.4943H4.95C2.83349 16.4943 1.77524 16.4943 1.11772 15.8353C0.460205 15.1764 0.460205 14.1158 0.460205 11.9947Z" fill="#888EA8"/>
<path d="M4.94996 12.7447C5.36323 12.7447 5.69826 12.409 5.69826 11.9948C5.69826 11.5806 5.36323 11.2449 4.94996 11.2449C4.53669 11.2449 4.20166 11.5806 4.20166 11.9948C4.20166 12.409 4.53669 12.7447 4.94996 12.7447Z" fill="#888EA8"/>
<path d="M7.94316 12.7447C8.35643 12.7447 8.69146 12.409 8.69146 11.9948C8.69146 11.5806 8.35643 11.2449 7.94316 11.2449C7.52988 11.2449 7.19486 11.5806 7.19486 11.9948C7.19486 12.409 7.52988 12.7447 7.94316 12.7447Z" fill="#888EA8"/>
<path d="M11.6847 11.9948C11.6847 12.409 11.3496 12.7447 10.9364 12.7447C10.5231 12.7447 10.1881 12.409 10.1881 11.9948C10.1881 11.5806 10.5231 11.2449 10.9364 11.2449C11.3496 11.2449 11.6847 11.5806 11.6847 11.9948Z" fill="#888EA8"/>
<path d="M4.01454 5.99542C4.01454 3.82104 5.77342 2.05835 7.94311 2.05835C10.1128 2.05835 11.8717 3.82104 11.8717 5.99542V7.49794C12.2962 7.50191 12.6675 7.51176 12.9941 7.53621V5.99542C12.9941 3.19978 10.7327 0.933472 7.94311 0.933472C5.15351 0.933472 2.89209 3.19978 2.89209 5.99542V7.53621C3.21873 7.51176 3.58998 7.50191 4.01454 7.49794V5.99542Z" fill="#888EA8"/>
</svg>
