<svg  viewBox="0 0 20 18" fill="none" xmlns="http://www.w3.org/2000/svg">
<path opacity="0.5" d="M12.5486 10.9108L12.1855 11.2704C12.1855 11.2704 11.3225 12.1252 8.96691 9.79193C6.61129 7.45863 7.47429 6.60381 7.47429 6.60381L7.70293 6.37733C8.26616 5.81943 8.31926 4.92372 7.82786 4.26983L6.82265 2.93221C6.21444 2.12287 5.03917 2.01596 4.34204 2.70648L3.09082 3.94585C2.74516 4.28824 2.51352 4.73209 2.54161 5.22445C2.61347 6.48409 3.18558 9.19429 6.37792 12.3564C9.76328 15.7097 12.9397 15.8429 14.2386 15.7223C14.6495 15.6842 15.0068 15.4757 15.2948 15.1905L16.4272 14.0688C17.1916 13.3117 16.976 12.0136 15.998 11.484L14.475 10.6592C13.8329 10.3115 13.0505 10.4136 12.5486 10.9108Z" fill="#888EA8"/>
<path d="M10.7178 1.40987C10.7705 1.10321 11.0787 0.895175 11.4046 0.944823C11.4248 0.948457 11.4897 0.959872 11.5237 0.966999C11.5917 0.981252 11.6866 1.0032 11.8049 1.03561C12.0415 1.10045 12.372 1.20725 12.7687 1.37835C13.5629 1.72092 14.6198 2.32017 15.7165 3.35202C16.8132 4.38387 17.4502 5.37823 17.8143 6.12544C17.9961 6.49865 18.1097 6.8096 18.1786 7.03219C18.213 7.14349 18.2364 7.23276 18.2515 7.29676C18.2591 7.32876 18.2646 7.35446 18.2685 7.37344L18.2731 7.39684C18.3258 7.7035 18.1067 8.00539 17.7808 8.05504C17.4558 8.10455 17.1496 7.89752 17.0955 7.59229C17.0938 7.5841 17.0893 7.56208 17.0844 7.54131C17.0745 7.49978 17.0575 7.43391 17.0305 7.34679C16.9766 7.17254 16.8829 6.91354 16.7273 6.59428C16.4166 5.95655 15.8578 5.07591 14.871 4.14752C13.8842 3.21912 12.9482 2.69337 12.2704 2.401C11.931 2.25463 11.6558 2.16648 11.4705 2.11573C11.378 2.09036 11.2616 2.06522 11.2174 2.05597C10.893 2.00511 10.6651 1.71566 10.7178 1.40987Z" fill="#888EA8"/>
<path fill-rule="evenodd" clip-rule="evenodd" d="M10.8981 3.99697C10.9888 3.69827 11.3197 3.5253 11.6372 3.61065L11.473 4.1515C11.6372 3.61065 11.6372 3.61065 11.6372 3.61065L11.6384 3.61096L11.6396 3.61129L11.6423 3.61202L11.6484 3.61375L11.6642 3.61838C11.6762 3.62199 11.6912 3.6267 11.7091 3.63268C11.7449 3.64463 11.7923 3.66163 11.8503 3.68503C11.9664 3.73186 12.1251 3.80417 12.32 3.91271C12.7102 4.12997 13.2429 4.49085 13.8686 5.07958C14.4944 5.66831 14.8779 6.16945 15.1089 6.53655C15.2242 6.71993 15.3011 6.86923 15.3509 6.97849C15.3757 7.0331 15.3938 7.07762 15.4065 7.1113C15.4129 7.12814 15.4179 7.14226 15.4217 7.15357L15.4266 7.16841L15.4285 7.17422L15.4292 7.17672L15.4296 7.17787C15.4296 7.17787 15.4299 7.17895 14.8551 7.33348L15.4299 7.17895C15.5206 7.47766 15.3368 7.789 15.0193 7.87434C14.7045 7.95896 14.3765 7.78964 14.2826 7.4956L14.2796 7.48751C14.2754 7.47624 14.2666 7.45405 14.2518 7.42165C14.2223 7.3569 14.1688 7.25098 14.0798 7.10953C13.9021 6.82698 13.5811 6.40004 13.0231 5.87508C12.4651 5.35011 12.0113 5.04808 11.711 4.88086C11.5607 4.79714 11.4481 4.74682 11.3793 4.71907C11.3448 4.70518 11.3213 4.69691 11.3093 4.69291L11.3007 4.69014C10.9882 4.60173 10.8082 4.29314 10.8981 3.99697Z" fill="#888EA8"/>
</svg>
