<svg width="21" height="20" viewBox="0 0 21 20" fill="none" xmlns="http://www.w3.org/2000/svg">
<path opacity="0.4" d="M14.2696 7.36808C16.0415 7.36808 17.4779 5.95435 17.4779 4.21041C17.4779 2.46647 16.0415 1.05273 14.2696 1.05273C12.4976 1.05273 11.0612 2.46647 11.0612 4.21041C11.0612 5.95435 12.4976 7.36808 14.2696 7.36808Z" fill="#6B7280"/>
<path opacity="0.4" d="M15.3389 18.9457C18.2921 18.9457 20.6861 17.532 20.6861 15.788C20.6861 14.0441 18.2921 12.6304 15.3389 12.6304C12.3857 12.6304 9.99164 14.0441 9.99164 15.788C9.99164 17.532 12.3857 18.9457 15.3389 18.9457Z" fill="#6B7280"/>
<path d="M7.85365 8.42047C10.2162 8.42047 12.1314 6.53548 12.1314 4.21023C12.1314 1.88499 10.2162 0 7.85365 0C5.4911 0 3.57587 1.88499 3.57587 4.21023C3.57587 6.53548 5.4911 8.42047 7.85365 8.42047Z" fill="black"/>
<path d="M7.8538 20.0001C11.9883 20.0001 15.3399 18.1151 15.3399 15.7898C15.3399 13.4646 11.9883 11.5796 7.8538 11.5796C3.71933 11.5796 0.367676 13.4646 0.367676 15.7898C0.367676 18.1151 3.71933 20.0001 7.8538 20.0001Z" fill="black"/>
</svg>
