<svg  viewBox="0 0 20 18" fill="none" xmlns="http://www.w3.org/2000/svg">
<path opacity="0.5" d="M11.308 3H8.11941C5.11313 3 3.60999 3 2.67606 3.87868C1.74213 4.75736 1.74213 6.17157 1.74213 9C1.74213 11.8284 1.74213 13.2426 2.67606 14.1213C3.60999 15 5.11313 15 8.11941 15H11.308C14.3143 15 15.8175 15 16.7514 14.1213C17.6853 13.2426 17.6853 11.8284 17.6853 9C17.6853 6.17157 17.6853 4.75736 16.7514 3.87868C15.8175 3 14.3143 3 11.308 3Z" fill="#888EA8"/>
<path d="M10.7102 6.75C10.7102 6.43934 10.9779 6.1875 11.308 6.1875H15.2938C15.624 6.1875 15.8917 6.43934 15.8917 6.75C15.8917 7.06066 15.624 7.3125 15.2938 7.3125H11.308C10.9779 7.3125 10.7102 7.06066 10.7102 6.75Z" fill="#888EA8"/>
<path d="M11.5073 9C11.5073 8.68934 11.775 8.4375 12.1052 8.4375H15.2938C15.624 8.4375 15.8917 8.68934 15.8917 9C15.8917 9.31066 15.624 9.5625 15.2938 9.5625H12.1052C11.775 9.5625 11.5073 9.31066 11.5073 9Z" fill="#888EA8"/>
<path d="M12.3045 11.25C12.3045 10.9393 12.5722 10.6875 12.9024 10.6875H15.2938C15.624 10.6875 15.8917 10.9393 15.8917 11.25C15.8917 11.5607 15.624 11.8125 15.2938 11.8125H12.9024C12.5722 11.8125 12.3045 11.5607 12.3045 11.25Z" fill="#888EA8"/>
<path d="M7.32225 8.25C8.20276 8.25 8.91657 7.57843 8.91657 6.75C8.91657 5.92157 8.20276 5.25 7.32225 5.25C6.44173 5.25 5.72793 5.92157 5.72793 6.75C5.72793 7.57843 6.44173 8.25 7.32225 8.25Z" fill="#888EA8"/>
<path d="M7.32225 12.75C10.5109 12.75 10.5109 12.0784 10.5109 11.25C10.5109 10.4216 9.08328 9.75 7.32225 9.75C5.56121 9.75 4.13361 10.4216 4.13361 11.25C4.13361 12.0784 4.13361 12.75 7.32225 12.75Z" fill="#888EA8"/>
</svg>
